<svg xmlns="http://www.w3.org/2000/svg" style="margin: 8px;" width="650" height="650"><g id="topGroup" transform="translate(650, 325)" fill="none" stroke="black" stroke-width="1"><g id="tracingArcs" stroke="rgba(0, 0, 0, 0.75)"><circle cx="-325" cy="0" r="325"/><circle cx="-270.83333333333337" cy="0" r="270.83333333333337"/><circle cx="-216.66666666666666" cy="0" r="216.66666666666666"/><circle cx="-162.5" cy="0" r="162.5"/><circle cx="-108.33333333333333" cy="0" r="108.33333333333333"/><circle cx="-65" cy="0" r="65"/><circle cx="-29.545454545454547" cy="0" r="29.545454545454547"/><path d="M -59.07138136153338 -1.0740251156642433 A -1625 -1625 0 0 1 -625 -125"/><path d="M 0 0 A -650 -650 0 0 1 -520 -260"/><path d="M -58.606557377049185 -5.327868852459017 A -325 -325 0 0 1 -325 -325"/><path d="M 0 0 A -162.5 -162.5 0 0 1 -130 -260"/><path d="M -52.18978102189781 -18.978102189781023 A -81.25 -81.25 0 0 1 -38.23529411764706 -152.94117647058823"/><path d="M 0 0 A -32.5 -32.5 0 0 1 -6.435643564356436 -64.35643564356435"/><path d="M -59.07138136153338 1.0740251156642433 A 1625 1625 0 0 0 -625 125"/><path d="M 0 0 A 650 650 0 0 0 -520 260"/><path d="M -58.606557377049185 5.327868852459017 A 325 325 0 0 0 -325 325"/><path d="M 0 0 A 162.5 162.5 0 0 0 -130 260"/><path d="M -52.18978102189781 18.978102189781023 A 81.25 81.25 0 0 0 -38.23529411764706 152.94117647058823"/><path d="M 0 0 A 32.5 32.5 0 0 0 -6.435643564356436 64.35643564356435"/><circle cx="-325" cy="0" r="325" stroke="rgba(0, 0, 0, 0.25)"/><circle cx="-379.16666666666663" cy="0" r="270.83333333333337" stroke="rgba(0, 0, 0, 0.25)"/><circle cx="-433.33333333333337" cy="0" r="216.66666666666666" stroke="rgba(0, 0, 0, 0.25)"/><circle cx="-487.5" cy="0" r="162.5" stroke="rgba(0, 0, 0, 0.25)"/><circle cx="-541.6666666666667" cy="0" r="108.33333333333333" stroke="rgba(0, 0, 0, 0.25)"/><circle cx="-585" cy="0" r="65" stroke="rgba(0, 0, 0, 0.25)"/><circle cx="-620.4545454545455" cy="0" r="29.545454545454547" stroke="rgba(0, 0, 0, 0.25)"/><path d="M -590.9286186384667 -1.0740251156642433 A -1625 -1625 0 0 0 -25.000000000000057 -125" stroke="rgba(0, 0, 0, 0.25)"/><path d="M -650 0 A -650 -650 0 0 0 -129.99999999999997 -260" stroke="rgba(0, 0, 0, 0.25)"/><path d="M -591.3934426229508 -5.327868852459017 A -325 -325 0 0 0 -325 -325" stroke="rgba(0, 0, 0, 0.25)"/><path d="M -650 0 A -162.5 -162.5 0 0 0 -520 -260" stroke="rgba(0, 0, 0, 0.25)"/><path d="M -597.8102189781022 -18.978102189781023 A -81.25 -81.25 0 0 0 -611.7647058823529 -152.94117647058823" stroke="rgba(0, 0, 0, 0.25)"/><path d="M -650 0 A -32.5 -32.5 0 0 0 -643.5643564356435 -64.35643564356435" stroke="rgba(0, 0, 0, 0.25)"/><path d="M -590.9286186384667 1.0740251156642433 A 1625 1625 0 0 1 -25.000000000000057 125" stroke="rgba(0, 0, 0, 0.25)"/><path d="M -650 0 A 650 650 0 0 1 -129.99999999999997 260" stroke="rgba(0, 0, 0, 0.25)"/><path d="M -591.3934426229508 5.327868852459017 A 325 325 0 0 1 -325 325" stroke="rgba(0, 0, 0, 0.25)"/><path d="M -650 0 A 162.5 162.5 0 0 1 -520 260" stroke="rgba(0, 0, 0, 0.25)"/><path d="M -597.8102189781022 18.978102189781023 A 81.25 81.25 0 0 1 -611.7647058823529 152.94117647058823" stroke="rgba(0, 0, 0, 0.25)"/><path d="M -650 0 A 32.5 32.5 0 0 1 -643.5643564356435 64.35643564356435" stroke="rgba(0, 0, 0, 0.25)"/><line x1="0" y1="0" x2="-650" y2="0"/></g><g id="labels"><rect x="-648" y="-12" width="20" height="12" fill="white" stroke="none" opacity="0.6"/><text x="-648" y="-2" font-size="12px" stroke="none" fill="black">0</text><rect x="-539.6666666666667" y="-12" width="20" height="12" fill="white" stroke="none" opacity="0.6"/><text x="-539.6666666666667" y="-2" font-size="12px" stroke="none" fill="black">10</text><rect x="-431.3333333333333" y="-12" width="20" height="12" fill="white" stroke="none" opacity="0.6"/><text x="-431.3333333333333" y="-2" font-size="12px" stroke="none" fill="black">25</text><rect x="-323" y="-12" width="20" height="12" fill="white" stroke="none" opacity="0.6"/><text x="-323" y="-2" font-size="12px" stroke="none" fill="black">50</text><rect x="-214.66666666666666" y="-12" width="20" height="12" fill="white" stroke="none" opacity="0.6"/><text x="-214.66666666666666" y="-2" font-size="12px" stroke="none" fill="black">100</text><rect x="-128" y="-12" width="20" height="12" fill="white" stroke="none" opacity="0.6"/><text x="-128" y="-2" font-size="12px" stroke="none" fill="black">200</text><rect x="-57.09090909090909" y="-12" width="20" height="12" fill="white" stroke="none" opacity="0.6"/><text x="-57.09090909090909" y="-2" font-size="12px" stroke="none" fill="black">500</text><rect x="-621.7692307692307" y="-125.15384615384616" width="20" height="12" transform="rotate(-157.38013505195957, -611.7692307692307, -115.15384615384616)" fill="white" stroke="none" opacity="0.6"/><text x="-611.7692307692307" y="-115.15384615384616" text-anchor="middle" font-size="12px" stroke="none" transform="rotate(-157.38013505195957, -611.7692307692307, -115.15384615384616)" fill="black">10j</text><rect x="-523.6" y="-254.8" width="20" height="12" transform="rotate(-126.86989764584402, -513.6, -244.8)" fill="white" stroke="none" opacity="0.6"/><text x="-513.6" y="-244.8" text-anchor="middle" font-size="12px" stroke="none" transform="rotate(-126.86989764584402, -513.6, -244.8)" fill="black">25j</text><rect x="-339" y="-319" width="20" height="12" transform="rotate(-90, -329, -309)" fill="white" stroke="none" opacity="0.6"/><text x="-329" y="-309" text-anchor="middle" font-size="12px" stroke="none" transform="rotate(-90, -329, -309)" fill="black">50j</text><rect x="-152.8" y="-259.6" width="20" height="12" transform="rotate(-53.13010235415599, -142.8, -249.6)" fill="white" stroke="none" opacity="0.6"/><text x="-142.8" y="-249.6" text-anchor="middle" font-size="12px" stroke="none" transform="rotate(-53.13010235415599, -142.8, -249.6)" fill="black">100j</text><rect x="-64.23529411764706" y="-158.94117647058823" width="20" height="12" transform="rotate(-28.072486935852957, -54.23529411764706, -148.94117647058823)" fill="white" stroke="none" opacity="0.6"/><text x="-54.23529411764706" y="-148.94117647058823" text-anchor="middle" font-size="12px" stroke="none" transform="rotate(-28.072486935852957, -54.23529411764706, -148.94117647058823)" fill="black">200j</text><rect x="-32.910891089108915" y="-75.10891089108911" width="20" height="12" transform="rotate(-11.421186274999286, -22.91089108910891, -65.10891089108911)" fill="white" stroke="none" opacity="0.6"/><text x="-22.91089108910891" y="-65.10891089108911" text-anchor="middle" font-size="12px" stroke="none" transform="rotate(-11.421186274999286, -22.91089108910891, -65.10891089108911)" fill="black">500j</text><rect x="-618.6923076923077" y="112.53846153846153" width="20" height="12" transform="rotate(157.38013505195957, -608.6923076923077, 122.53846153846153)" fill="white" stroke="none" opacity="0.6"/><text x="-608.6923076923077" y="122.53846153846153" text-anchor="middle" font-size="12px" stroke="none" transform="rotate(157.38013505195957, -608.6923076923077, 122.53846153846153)" fill="black">-10j</text><rect x="-517.2" y="239.6" width="20" height="12" transform="rotate(126.86989764584402, -507.2, 249.6)" fill="white" stroke="none" opacity="0.6"/><text x="-507.2" y="249.6" text-anchor="middle" font-size="12px" stroke="none" transform="rotate(126.86989764584402, -507.2, 249.6)" fill="black">-25j</text><rect x="-331" y="299" width="20" height="12" transform="rotate(90, -321, 309)" fill="white" stroke="none" opacity="0.6"/><text x="-321" y="309" text-anchor="middle" font-size="12px" stroke="none" transform="rotate(90, -321, 309)" fill="black">-50j</text><rect x="-146.4" y="234.8" width="20" height="12" transform="rotate(53.13010235415599, -136.4, 244.8)" fill="white" stroke="none" opacity="0.6"/><text x="-136.4" y="244.8" text-anchor="middle" font-size="12px" stroke="none" transform="rotate(53.13010235415599, -136.4, 244.8)" fill="black">-100j</text><rect x="-60.470588235294116" y="131.88235294117646" width="20" height="12" transform="rotate(28.072486935852957, -50.470588235294116, 141.88235294117646)" fill="white" stroke="none" opacity="0.6"/><text x="-50.470588235294116" y="141.88235294117646" text-anchor="middle" font-size="12px" stroke="none" transform="rotate(28.072486935852957, -50.470588235294116, 141.88235294117646)" fill="black">-200j</text><rect x="-31.326732673267326" y="47.26732673267326" width="20" height="12" transform="rotate(11.421186274999286, -21.326732673267326, 57.26732673267326)" fill="white" stroke="none" opacity="0.6"/><text x="-21.326732673267326" y="57.26732673267326" text-anchor="middle" font-size="12px" stroke="none" transform="rotate(11.421186274999286, -21.326732673267326, 57.26732673267326)" fill="black">-500j</text></g><g id="userExtras"><g id="zMarkers"/><g id="qCircles"/><g id="vswrCircles"><circle cx="-325" cy="0" r="108.33333333333334" stroke-width="3" stroke-dasharray="2,2,10,2"/><rect x="-353" y="-114.33333333333334" width="56" height="12" fill="white" stroke="none" opacity="1"/><text x="-325" y="-104.33333333333334" font-size="14px" stroke="none" text-anchor="middle" fill="black">VSWR=2</text></g><g id="sParams"/><g id="nfCircles"/><g id="stabilityCircles"/></g><g id="impedanceArc"><path stroke-linecap="round" stroke-linejoin="round" fill="none" stroke="#1f77b4" stroke-width="5" id="dp_0" d="M -567.4 39.8 L -567.4 39.8"/><path stroke-linecap="round" stroke-linejoin="round" fill="none" stroke="#ff7f0e" stroke-width="5" id="dp_1" d="M -567.4 39.8 L -567.4 39.8 L -568.4 35.5 L -569.2 31.1 L -570 26.8 L -570.6 22.4 L -571.1 18 L -571.5 13.6 L -571.8 9.2 L -572 4.9 L -572.1 0.5 L -572 -3.9 L -571.9 -8.3 L -571.6 -12.7 L -571.2 -17.1 L -570.7 -21.4 L -570.1 -25.8 L -569.4 -30.2 L -568.6 -34.5 L -567.6 -38.9 L -566.5 -43.2 L -565.3 -47.5 L -564 -51.8 L -562.6 -56.1 L -561.1 -60.4 L -559.4 -64.7 L -557.6 -68.9 L -555.7 -73.1 L -553.7 -77.3 L -551.5 -81.4 L -549.2 -85.5 L -546.8 -89.6 L -544.2 -93.6 L -541.5 -97.6 L -538.7 -101.6 L -535.7 -105.5 L -532.6 -109.4 L -529.4 -113.2 L -526 -116.9 L -522.5 -120.6 L -518.8 -124.2 L -515 -127.7 L -511 -131.2 L -506.8 -134.6 L -502.6 -137.8 L -498.1 -141 L -493.5 -144.1 L -488.8 -147 L -483.9 -149.9 L -478.8 -152.6 L -473.6 -155.1 L -468.2 -157.5"/><path stroke-linecap="round" stroke-linejoin="round" fill="none" stroke="#2ca02c" stroke-width="5" id="dp_2" d="M -468.2 -157.5 L -468.2 -157.5 L -466.2 -157.2 L -464.2 -156.9 L -462.1 -156.5 L -460.1 -156.2 L -458 -155.7 L -455.9 -155.3 L -453.8 -154.8 L -451.7 -154.3 L -449.6 -153.7 L -447.4 -153.1 L -445.2 -152.5 L -443.1 -151.8 L -440.9 -151.1 L -438.7 -150.4 L -436.4 -149.6 L -434.2 -148.7 L -432 -147.9 L -429.7 -147 L -427.5 -146 L -425.2 -145 L -422.9 -143.9 L -420.7 -142.8 L -418.4 -141.7 L -416.1 -140.5 L -413.8 -139.3 L -411.5 -138 L -409.2 -136.6 L -406.9 -135.2 L -404.6 -133.8 L -402.4 -132.3 L -400.1 -130.7 L -397.8 -129.1 L -395.6 -127.5 L -393.3 -125.8 L -391.1 -124 L -388.8 -122.2 L -386.6 -120.3 L -384.4 -118.3 L -382.2 -116.4 L -380.1 -114.3 L -378 -112.2 L -375.8 -110 L -373.8 -107.8 L -371.7 -105.5 L -369.7 -103.2 L -367.7 -100.8 L -365.7 -98.3 L -363.8 -95.8 L -361.9 -93.3 L -360 -90.7"/><path stroke-linecap="round" stroke-linejoin="round" fill="none" stroke="#d62728" stroke-width="5" id="dp_3" d="M -360 -90.7 L -360 -90.7 L -360.6 -89.6 L -361.2 -88.6 L -361.7 -87.5 L -362.3 -86.4 L -362.8 -85.3 L -363.3 -84.3 L -363.9 -83.2 L -364.4 -82.1 L -364.9 -81 L -365.4 -79.9 L -365.9 -78.8 L -366.4 -77.7 L -366.9 -76.5 L -367.4 -75.4 L -367.9 -74.3 L -368.3 -73.2 L -368.8 -72 L -369.3 -70.9 L -369.7 -69.8 L -370.2 -68.6 L -370.6 -67.5 L -371 -66.3 L -371.4 -65.1 L -371.9 -64 L -372.3 -62.8 L -372.7 -61.6 L -373.1 -60.5 L -373.5 -59.3 L -373.8 -58.1 L -374.2 -56.9 L -374.6 -55.7 L -374.9 -54.5 L -375.3 -53.3 L -375.6 -52.1 L -376 -50.9 L -376.3 -49.7 L -376.6 -48.5 L -376.9 -47.3 L -377.2 -46.1 L -377.5 -44.9 L -377.8 -43.7 L -378.1 -42.4 L -378.4 -41.2 L -378.7 -40 L -378.9 -38.7 L -379.2 -37.5 L -379.4 -36.3 L -379.6 -35 L -379.9 -33.8 L -380.1 -32.5"/><path stroke-linecap="round" stroke-linejoin="round" fill="none" stroke="#9467bd" stroke-width="5" id="dp_4" d="M -380.1 -32.5 L -380.1 -32.5 L -379.5 -33.5 L -378.9 -34.5 L -378.3 -35.4 L -377.6 -36.4 L -377 -37.3 L -376.3 -38.2 L -375.6 -39.1 L -374.9 -40 L -374.2 -40.9 L -373.5 -41.7 L -372.7 -42.6 L -372 -43.4 L -371.2 -44.3 L -370.4 -45.1 L -369.6 -45.9 L -368.8 -46.7 L -367.9 -47.4 L -367.1 -48.2 L -366.2 -48.9 L -365.4 -49.6 L -364.5 -50.3 L -363.6 -51 L -362.7 -51.7 L -361.8 -52.4 L -360.8 -53 L -359.9 -53.6 L -358.9 -54.3 L -357.9 -54.8 L -357 -55.4 L -356 -56 L -355 -56.5 L -354 -57 L -353 -57.5 L -351.9 -58 L -350.9 -58.5 L -349.9 -59 L -348.8 -59.4 L -347.8 -59.8 L -346.7 -60.2 L -345.6 -60.6 L -344.6 -60.9 L -343.5 -61.3 L -342.4 -61.6 L -341.3 -61.9 L -340.2 -62.2 L -339.1 -62.4 L -338 -62.7 L -336.9 -62.9 L -335.7 -63.1 L -334.6 -63.3"/><path stroke-linecap="round" stroke-linejoin="round" fill="none" stroke="#8c564b" stroke-width="5" id="dp_5" d="M -334.6 -63.3 L -334.6 -63.3 L -334.2 -62.1 L -333.7 -61 L -333.3 -59.9 L -332.8 -58.8 L -332.4 -57.7 L -332 -56.5 L -331.6 -55.4 L -331.2 -54.2 L -330.8 -53.1 L -330.4 -51.9 L -330 -50.8 L -329.6 -49.6 L -329.3 -48.5 L -328.9 -47.3 L -328.6 -46.1 L -328.2 -44.9 L -327.9 -43.8 L -327.6 -42.6 L -327.2 -41.4 L -326.9 -40.2 L -326.6 -39 L -326.4 -37.8 L -326.1 -36.6 L -325.8 -35.4 L -325.5 -34.2 L -325.3 -33 L -325 -31.8 L -324.8 -30.6 L -324.6 -29.4 L -324.4 -28.1 L -324.2 -26.9 L -324 -25.7 L -323.8 -24.5 L -323.6 -23.2 L -323.4 -22 L -323.3 -20.8 L -323.1 -19.5 L -323 -18.3 L -322.8 -17.1 L -322.7 -15.8 L -322.6 -14.6 L -322.5 -13.3 L -322.4 -12.1 L -322.3 -10.9 L -322.2 -9.6 L -322.2 -8.4 L -322.1 -7.1 L -322 -5.9 L -322 -4.6 L -322 -3.4"/><path stroke-linecap="round" stroke-linejoin="round" fill="none" stroke="#e377c2" stroke-width="5" id="dp_6" d="M -322 -3.4 L -322 -3.4 L -321.9 -0.1 L -322 3.1 L -322.1 6.4 L -322.2 9.6 L -322.4 12.8 L -322.7 16.1 L -323.1 19.3 L -323.5 22.5 L -324 25.7 L -324.5 28.9 L -325.1 32 L -325.8 35.2 L -326.5 38.3 L -327.2 41.4 L -328.1 44.5 L -329 47.5 L -329.9 50.5 L -330.9 53.5 L -332 56.5 L -333.1 59.4 L -334.3 62.4 L -335.5 65.2 L -336.7 68.1 L -338 70.9 L -339.4 73.6 L -340.8 76.4 L -342.2 79 L -343.7 81.7 L -345.3 84.3 L -346.8 86.9 L -348.4 89.4 L -350.1 91.9 L -351.8 94.3 L -353.5 96.7 L -355.2 99 L -357 101.3 L -358.8 103.6 L -360.6 105.8 L -362.5 108 L -364.4 110.1 L -366.3 112.2 L -368.2 114.2 L -370.2 116.2 L -372.1 118.1 L -374.1 120 L -376.1 121.8 L -378.2 123.6 L -380.2 125.4 L -382.2 127.1 L -384.3 128.7"/><path stroke-linecap="round" stroke-linejoin="round" fill="none" stroke="#7f7f7f" stroke-width="5" id="dp_7" d="M -384.3 128.7 L -384.3 128.7 L -387.3 124.6 L -390.2 120.5 L -393 116.2 L -395.8 111.8 L -398.5 107.4 L -401 102.8 L -403.5 98.2 L -405.9 93.4 L -408.2 88.6 L -410.3 83.7 L -412.4 78.7 L -414.3 73.7 L -416.1 68.6 L -417.8 63.4 L -419.3 58.1 L -420.8 52.8 L -422.1 47.5 L -423.2 42 L -424.2 36.6 L -425.1 31.1 L -425.9 25.6 L -426.5 20 L -426.9 14.5 L -427.2 8.9 L -427.4 3.3 L -427.4 -2.3 L -427.3 -7.9 L -427 -13.5 L -426.5 -19 L -426 -24.6 L -425.3 -30.1 L -424.4 -35.6 L -423.4 -41.1 L -422.3 -46.5 L -421 -51.8 L -419.6 -57.2 L -418.1 -62.4 L -416.4 -67.6 L -414.6 -72.8 L -412.7 -77.8 L -410.7 -82.8 L -408.6 -87.7 L -406.3 -92.6 L -403.9 -97.3 L -401.5 -102 L -398.9 -106.6 L -396.3 -111 L -393.5 -115.4 L -390.7 -119.7 L -387.8 -123.9"/><path stroke-linecap="round" stroke-linejoin="round" fill="none" stroke="#bcbd22" stroke-width="5" id="dp_8" d="M -387.8 -123.9 L -387.8 -123.9 L -385.9 -122.3 L -383.9 -120.6 L -382 -118.9 L -380.1 -117.1 L -378.2 -115.3 L -376.3 -113.5 L -374.4 -111.6 L -372.6 -109.6 L -370.8 -107.6 L -369 -105.6 L -367.2 -103.6 L -365.4 -101.4 L -363.7 -99.3 L -362 -97.1 L -360.3 -94.9 L -358.7 -92.6 L -357.1 -90.3 L -355.5 -87.9 L -354 -85.5 L -352.4 -83 L -351 -80.6 L -349.5 -78 L -348.1 -75.5 L -346.8 -72.9 L -345.5 -70.3 L -344.2 -67.6 L -343 -64.9 L -341.8 -62.2 L -340.7 -59.4 L -339.6 -56.6 L -338.6 -53.8 L -337.6 -50.9 L -336.6 -48.1 L -335.8 -45.2 L -334.9 -42.2 L -334.1 -39.3 L -333.4 -36.3 L -332.8 -33.3 L -332.2 -30.3 L -331.6 -27.3 L -331.1 -24.2 L -330.7 -21.2 L -330.3 -18.1 L -330 -15 L -329.7 -11.9 L -329.5 -8.8 L -329.4 -5.7 L -329.3 -2.6 L -329.3 0.5 L -329.3 3.6"/><path stroke-linecap="round" stroke-linejoin="round" fill="none" stroke="red" stroke-width="1" d="M -329.4 4.8 L -329.4 4.8 L -329.4 4.7 L -329.4 4.6 L -329.4 4.4 L -329.4 4.3 L -329.4 4.2 L -329.4 4.1 L -329.3 3.9 L -329.3 3.8 L -329.3 3.7 L -329.3 3.6 L -329.3 3.4 L -329.3 3.3 L -329.3 3.2 L -329.2 3.1 L -329.2 2.9 L -329.2 2.8 L -329.2 2.7 L -329.2 2.6 L -329.2 2.4 L -329.2 2.3"/></g><g id="dpCircles"><circle cx="-567.4" cy="39.8" r="6" fill="#1f77b4" id="tol_marker_0" stroke="none"/><circle cx="-468.2" cy="-157.5" r="6" fill="#ff7f0e" id="tol_marker_0" stroke="none"/><circle cx="-360" cy="-90.7" r="6" fill="#2ca02c" id="tol_marker_0" stroke="none"/><circle cx="-380.1" cy="-32.5" r="6" fill="#d62728" id="tol_marker_0" stroke="none"/><circle cx="-334.6" cy="-63.3" r="6" fill="#9467bd" id="tol_marker_0" stroke="none"/><circle cx="-322" cy="-3.4" r="6" fill="#8c564b" id="tol_marker_0" stroke="none"/><circle cx="-384.3" cy="128.7" r="6" fill="#e377c2" id="tol_marker_0" stroke="none"/><circle cx="-387.8" cy="-123.9" r="6" fill="#7f7f7f" id="tol_marker_0" stroke="none"/><circle cx="-329.3" cy="3.6" r="6" fill="#bcbd22" id="tol_marker_0" stroke="none"/><circle cx="-329.4" cy="4.8" r="6" fill="#bcbd22" id="tol_marker_0_2396000000" stroke="none"/><circle cx="-329.4" cy="4.7" r="6" fill="#bcbd22" id="tol_marker_0_2396400000" stroke="none"/><circle cx="-329.4" cy="4.6" r="6" fill="#bcbd22" id="tol_marker_0_2396800000" stroke="none"/><circle cx="-329.4" cy="4.4" r="6" fill="#bcbd22" id="tol_marker_0_2397200000" stroke="none"/><circle cx="-329.4" cy="4.3" r="6" fill="#bcbd22" id="tol_marker_0_2397600000" stroke="none"/><circle cx="-329.4" cy="4.2" r="6" fill="#bcbd22" id="tol_marker_0_2398000000" stroke="none"/><circle cx="-329.4" cy="4.1" r="6" fill="#bcbd22" id="tol_marker_0_2398400000" stroke="none"/><circle cx="-329.3" cy="3.9" r="6" fill="#bcbd22" id="tol_marker_0_2398800000" stroke="none"/><circle cx="-329.3" cy="3.8" r="6" fill="#bcbd22" id="tol_marker_0_2399200000" stroke="none"/><circle cx="-329.3" cy="3.7" r="6" fill="#bcbd22" id="tol_marker_0_2399600000" stroke="none"/><circle cx="-329.3" cy="3.6" r="6" fill="#bcbd22" id="tol_marker_0_2400000000" stroke="none"/><circle cx="-329.3" cy="3.4" r="6" fill="#bcbd22" id="tol_marker_0_2400400000" stroke="none"/><circle cx="-329.3" cy="3.3" r="6" fill="#bcbd22" id="tol_marker_0_2400800000" stroke="none"/><circle cx="-329.3" cy="3.2" r="6" fill="#bcbd22" id="tol_marker_0_2401200000" stroke="none"/><circle cx="-329.2" cy="3.1" r="6" fill="#bcbd22" id="tol_marker_0_2401600000" stroke="none"/><circle cx="-329.2" cy="2.9" r="6" fill="#bcbd22" id="tol_marker_0_2402000000" stroke="none"/><circle cx="-329.2" cy="2.8" r="6" fill="#bcbd22" id="tol_marker_0_2402400000" stroke="none"/><circle cx="-329.2" cy="2.7" r="6" fill="#bcbd22" id="tol_marker_0_2402800000" stroke="none"/><circle cx="-329.2" cy="2.6" r="6" fill="#bcbd22" id="tol_marker_0_2403200000" stroke="none"/><circle cx="-329.2" cy="2.4" r="6" fill="#bcbd22" id="tol_marker_0_2403600000" stroke="none"/><circle cx="-329.2" cy="2.3" r="6" fill="#bcbd22" id="tol_marker_0_2404000000" stroke="none"/></g><g id="hoverRects"/></g></svg>